# xmcd
#
# Track frame offsets: 
#        150
#        18035
#        34148
#        55859
#        74144
#        94230
#        125903
#        144331
#        156311
#        177376
#        196593
#        212076
#
# Disc length: 3105 seconds
#
# Revision: 0
# Processed by: cddbd v1.5.2PL0 Copyright (c) Steve Scherf et al.
# Submitted via: ExactAudioCopy v1.3
#
DISCID=ae0c1f0c
DTITLE=The Blues Band - The Rooster Crowed
DYEAR=2018
DGENRE=Blues
TTITLE0=New Skin Game Blues
TTITLE1=Peace Don't You Worry
TTITLE2=Rooster Crowed In Memphis
TTITLE3=Too Much Competition
TTITLE4=I Am The Doctor
TTITLE5=Still A Fool
TTITLE6=Say You Will 
TTITLE7=Not Dog
TTITLE8=Weeping Willow
TTITLE9=Brother Blues
TTITLE10=Get Right Church
TTITLE11=Even Better
EXTD=
EXTT0=
EXTT1=
EXTT2=
EXTT3=
EXTT4=
EXTT5=
EXTT6=
EXTT7=
EXTT8=
EXTT9=
EXTT10=
EXTT11=
PLAYORDER=
